<?xml version="1.0" encoding="UTF-8"?>
<svg version="1.1" xmlns="http://www.w3.org/2000/svg" width="300" height="300">
<path d="M0 0 C1.32078049 0.00456207 1.32078049 0.00456207 2.66824341 0.00921631 C15.54958889 0.0750397 27.87010712 0.56066986 40.25 4.4375 C40.96478516 4.65180664 41.67957031 4.86611328 42.41601562 5.08691406 C70.39987994 13.64653774 96.55267997 29.73361139 115.25 52.4375 C116.15105469 53.47197266 116.15105469 53.47197266 117.0703125 54.52734375 C131.7944239 71.96379146 141.99209862 93.29642907 147.25 115.4375 C147.50894043 116.48437988 147.76788086 117.53125977 148.03466797 118.60986328 C150.40267433 129.07783191 150.80747884 139.22963507 150.75 149.9375 C150.74823761 150.81634857 150.74647522 151.69519714 150.74465942 152.60067749 C150.68162664 166.72338916 149.59253327 179.91144346 145.25 193.4375 C144.99299316 194.2639502 144.73598633 195.09040039 144.47119141 195.94189453 C137.84556059 216.76240046 127.10686055 235.36002095 112.203125 251.33203125 C110.60939276 253.05007461 109.13541074 254.78615335 107.6875 256.625 C104.49848861 260.30462852 101.00170447 263.3438814 97.25 266.4375 C96.38117188 267.17871094 95.51234375 267.91992188 94.6171875 268.68359375 C71.98160038 287.15257802 41.11926023 300.38934966 11.6171875 300.67578125 C10.79147751 300.6855751 9.96576752 300.69536896 9.11503601 300.70545959 C-25.06086197 301.02763731 -25.06086197 301.02763731 -39.75 296.4375 C-40.47010254 296.22319336 -41.19020508 296.00888672 -41.93212891 295.78808594 C-52.76768425 292.50226536 -62.80499495 287.80758782 -72.75 282.4375 C-73.80960937 281.87160156 -74.86921875 281.30570312 -75.9609375 280.72265625 C-90.63204274 272.5399532 -104.07917353 261.39493215 -114.75 248.4375 C-115.35070312 247.74785156 -115.95140625 247.05820313 -116.5703125 246.34765625 C-131.2944239 228.91120854 -141.49209862 207.57857093 -146.75 185.4375 C-147.13841064 183.86718018 -147.13841064 183.86718018 -147.53466797 182.26513672 C-149.90267433 171.79716809 -150.30747884 161.64536493 -150.25 150.9375 C-150.24823761 150.05865143 -150.24647522 149.17980286 -150.24465942 148.27432251 C-150.18162664 134.15161084 -149.09253327 120.96355654 -144.75 107.4375 C-144.49299316 106.6110498 -144.23598633 105.78459961 -143.97119141 104.93310547 C-137.36732103 84.18097996 -126.67531043 65.50189875 -111.7578125 49.62109375 C-109.68697176 47.42346772 -109.68697176 47.42346772 -107.71875 44.8671875 C-104.78239789 41.24335613 -101.31811074 38.42128599 -97.75 35.4375 C-97.03070313 34.81875 -96.31140625 34.2 -95.5703125 33.5625 C-80.74906309 21.18650723 -63.5217839 12.05585311 -45.1875 6.125 C-44.12825317 5.77937012 -44.12825317 5.77937012 -43.04760742 5.42675781 C-28.72554576 1.05061693 -14.87279623 -0.10902756 0 0 Z " fill="#009B60" transform="translate(149.75,-0.4375)"/>
<path d="M0 0 C0 4.62 0 9.24 0 14 C-2.99479167 14.390625 -5.98958333 14.78125 -8.984375 15.171875 C-12.47312391 16.12992522 -13.80931425 17.15415589 -16 20 C-17.24603188 23.59609035 -17.17339348 27.19127338 -17.24609375 30.96875 C-17.27907824 32.3593802 -17.31228898 33.75000505 -17.34570312 35.140625 C-17.3926802 37.30789911 -17.43704429 39.4751593 -17.47680664 41.64257812 C-18.02761365 70.32412176 -18.02761365 70.32412176 -26.7421875 79.91796875 C-29.73408677 82.62095071 -31.99644296 84.22031384 -36 85 C-36 85.66 -36 86.32 -36 87 C-35.319375 87.20625 -34.63875 87.4125 -33.9375 87.625 C-26.32562454 91.18800553 -23.11862173 95.91777779 -19.9453125 103.609375 C-17.09886334 113.81895298 -17.72633457 124.89177428 -17.59863281 135.42480469 C-17.57092924 137.53887378 -17.52512721 139.65194558 -17.4765625 141.765625 C-17.4468335 143.63395996 -17.4468335 143.63395996 -17.41650391 145.54003906 C-16.94336507 149.47047492 -15.88028849 153.11971151 -13 156 C-8.67509147 156.4652292 -4.34064463 156.70500473 0 157 C0 161.95 0 166.9 0 172 C-9.19742918 172.39137997 -17.45957445 172.63658494 -24.84375 166.45703125 C-35.05754026 155.5172608 -33.20455051 139.24224913 -33.60546875 125.34375 C-33.44124967 110.84206572 -33.44124967 110.84206572 -39 98 C-42.76162775 95.06932565 -46.29036739 93.94192652 -51 93 C-51 88.38 -51 83.76 -51 79 C-48.9271875 78.4121875 -48.9271875 78.4121875 -46.8125 77.8125 C-42.41509973 76.31448452 -39.82508781 74.82217762 -37 71 C-33.01396979 62.20156746 -33.54282824 53.16278365 -33.5 43.6875 C-33.36660457 14.36660457 -33.36660457 14.36660457 -23.8125 4.8125 C-16.12522799 -0.14151974 -8.98986279 -0.30999527 0 0 Z " fill="#F6FCFB" transform="translate(82,64)"/>
<path d="M0 0 C18.69387755 -0.81672281 18.69387755 -0.81672281 24 4 C30.19778418 11.23074821 32.28009148 18.63813768 32.30859375 28.1015625 C32.33377381 29.66015967 32.35917151 31.21875333 32.38476562 32.77734375 C32.41330302 35.19253449 32.43736409 37.60766401 32.45629883 40.02294922 C32.15508141 58.26602304 32.15508141 58.26602304 40 74 C43.6466442 76.51492703 46.19833148 76.31404735 51 77 C51 81.95 51 86.9 51 92 C49.618125 92.4125 48.23625 92.825 46.8125 93.25 C42.81686037 94.61742455 39.87524095 95.78649541 37 99 C33.63882519 106.40023362 32.87065074 114.02407935 32.82421875 122.07421875 C32.80100917 123.64519552 32.77689138 125.21615909 32.75195312 126.78710938 C32.71701415 129.23112726 32.68757091 131.67466041 32.67407227 134.11889648 C32.52998129 156.00520802 32.52998129 156.00520802 25.98706055 163.21948242 C24.06748278 164.99990908 22.17439098 166.54332792 20 168 C19.14148438 168.58201172 19.14148438 168.58201172 18.265625 169.17578125 C14.81418948 170.43138969 11.3701391 170.20814807 7.75 170.125 C7.00492188 170.11597656 6.25984375 170.10695312 5.4921875 170.09765625 C3.66131941 170.07418358 1.83061762 170.03831525 0 170 C0 165.71 0 161.42 0 157 C2.76692708 156.51171875 5.53385417 156.0234375 8.30078125 155.53515625 C11.08189213 155.04253153 11.08189213 155.04253153 14 154 C16.71509303 148.98951725 17.44046183 144.70430889 17.44140625 139.01171875 C17.45461411 138.26847855 17.46782196 137.52523834 17.48143005 136.75947571 C17.52199246 134.4021123 17.54387885 132.04513088 17.5625 129.6875 C17.86938954 99.67122271 17.86938954 99.67122271 29.21875 88.34765625 C31.15272812 86.88444912 32.6296856 86.41064657 35 86 C35 85.34 35 84.68 35 84 C33.9790625 83.7215625 33.9790625 83.7215625 32.9375 83.4375 C26.58662792 80.32962643 23.05087448 75.91087859 20.625 69.3125 C20.05212002 67.55151675 19.50729423 65.78098457 19 64 C18.82509033 63.45206787 18.65018066 62.90413574 18.4699707 62.33959961 C17.78220784 58.91579104 17.80286946 55.49477624 17.75390625 52.015625 C17.7209547 50.42447394 17.68774329 48.83332824 17.65429688 47.2421875 C17.6070427 44.74971347 17.56261481 42.2572591 17.52319336 39.76464844 C17.48314103 37.34807802 17.43167085 34.93194684 17.37890625 32.515625 C17.3704921 31.78200745 17.36207794 31.04838989 17.35340881 30.2925415 C17.23498701 25.259991 16.36498543 20.84827532 15 16 C9.97350697 14.42922093 5.23880078 13.55145271 0 13 C0 8.71 0 4.42 0 0 Z " fill="#FBFDFD" transform="translate(216,65)"/>
<path d="M0 0 C4.71969504 2.1377885 7.34602715 4.94967997 10.0625 9.3125 C11.58038742 15.28285717 11.11034218 19.82043943 8.3125 25.3125 C4.94988503 29.22040388 2.4420193 31.57006702 -2.7734375 32.48828125 C-8.43202294 32.85174203 -12.19072976 32.51851418 -16.625 28.8125 C-20.68223934 24.59532799 -22.04544826 21.36842619 -22.375 15.5625 C-22.2154614 9.54988891 -19.33652353 6.53700206 -15.5 2.125 C-10.98474498 -1.3932317 -5.38377348 -0.98784835 0 0 Z " fill="#FAFDFD" transform="translate(204,134)"/>
<path d="M0 0 C4.47103009 1.73740563 7.08836719 4.67629593 9.5 8.75 C11.48606218 13.31536371 11.46954277 17.26858196 10 22 C7.60288077 26.74831663 4.78856368 29.60919317 0 32 C-5.03978164 32.95929637 -9.92863331 33.16087584 -14.48828125 30.60546875 C-18.88849053 26.9131542 -21.57310124 23.69749412 -22.2421875 17.90234375 C-22.64822209 10.7489696 -20.13276851 7.45268379 -15.5 2.125 C-11.00689301 -1.39631541 -5.37143324 -0.87961725 0 0 Z " fill="#FAFDFC" transform="translate(155,134)"/>
<path d="M0 0 C4.899679 2.09740645 7.62862092 5.2641154 10 10 C10.91469792 15.59490229 11.07496122 21.23570406 7.8125 26.0625 C4.98829832 29.58602781 1.60857729 31.69381563 -2.83203125 32.5390625 C-8.46779508 32.70156159 -12.19681824 32.52828689 -16.625 28.8125 C-20.66012218 24.61831699 -22.04327801 21.40086517 -22.375 15.625 C-22.21091888 9.46170281 -19.92970152 5.88145898 -15.5 1.5625 C-10.31376832 -0.752782 -5.5861433 -0.86862282 0 0 Z " fill="#FAFDFD" transform="translate(106,134)"/>
<path d="M0 0 C9.5862069 0 9.5862069 0 13 3 C14 5.4375 14 5.4375 14 8 C12.5625 10.3125 12.5625 10.3125 11 12 C11.495 12.9075 11.99 13.815 12.5 14.75 C14 18 14 18 14 22 C13.01 22 12.02 22 11 22 C10.34 19.03 9.68 16.06 9 13 C6.03 12.505 6.03 12.505 3 12 C3 15.3 3 18.6 3 22 C2.01 22 1.02 22 0 22 C0 14.74 0 7.48 0 0 Z " fill="#DFF4EF" transform="translate(97,64)"/>
<path d="M0 0 C10.49140292 -0.37028481 10.49140292 -0.37028481 12.82421875 1.328125 C14.70182256 3.99794039 14.51656862 5.83601723 14 9 C11.26513033 12.05661905 9.79836847 12.93974578 5.6875 13.25 C4.800625 13.1675 3.91375 13.085 3 13 C3 15.64 3 18.28 3 21 C2.01 21 1.02 21 0 21 C0 14.07 0 7.14 0 0 Z " fill="#F7FCFA" transform="translate(149,216)"/>
<path d="M0 0 C1.32 0 2.64 0 4 0 C5.17192435 3.12305373 6.33663876 6.24874739 7.5 9.375 C8.00080078 10.70917969 8.00080078 10.70917969 8.51171875 12.0703125 C8.82753906 12.92109375 9.14335937 13.771875 9.46875 14.6484375 C9.90864258 15.82672119 9.90864258 15.82672119 10.35742188 17.02880859 C11 19 11 19 11 21 C10.01 21 9.02 21 8 21 C7.34 19.35 6.68 17.7 6 16 C3.03 15.67 0.06 15.34 -3 15 C-3.33 16.98 -3.66 18.96 -4 21 C-5.32 20.67 -6.64 20.34 -8 20 C-6.85865495 16.85251982 -5.71117657 13.70731119 -4.5625 10.5625 C-4.07426758 9.21575195 -4.07426758 9.21575195 -3.57617188 7.84179688 C-3.26357422 6.98779297 -2.95097656 6.13378906 -2.62890625 5.25390625 C-2.34088135 4.46314697 -2.05285645 3.6723877 -1.75610352 2.85766602 C-1 1 -1 1 0 0 Z " fill="#DBF3ED" transform="translate(134,216)"/>
<path d="M0 0 C3.96 0 7.92 0 12 0 C12.33 0.99 12.66 1.98 13 3 C9.7 3 6.4 3 3 3 C3 4.98 3 6.96 3 9 C5.97 9 8.94 9 12 9 C12 9.66 12 10.32 12 11 C9.03 11 6.06 11 3 11 C3 13.97 3 16.94 3 20 C6.3 20 9.6 20 13 20 C13 20.66 13 21.32 13 22 C8.71 22 4.42 22 0 22 C0 14.74 0 7.48 0 0 Z " fill="#E0F5EF" transform="translate(115,64)"/>
<path d="M0 0 C0.33 0.99 0.66 1.98 1 3 C-1.31 3.33 -3.62 3.66 -6 4 C-6 5.32 -6 6.64 -6 8 C-4.27539757 9.39783948 -4.27539757 9.39783948 -2.0625 10.4375 C1.88621519 12.67998023 1.88621519 12.67998023 3 15.8125 C3 16.534375 3 17.25625 3 18 C0.00543798 20.90381772 -1.45826408 21.95409018 -5.6875 22.3125 C-9 22 -9 22 -11 21 C-11 20.34 -11 19.68 -11 19 C-8.98177083 19.03255208 -6.96354167 19.06510417 -4.9453125 19.09765625 C-2.91814596 19.12649242 -2.91814596 19.12649242 -1 18 C-1.19924907 16.07209858 -1.19924907 16.07209858 -2 14 C-3.81130831 12.58638304 -3.81130831 12.58638304 -6 11.5 C-9.77694144 9.50361667 -9.77694144 9.50361667 -10.87890625 7.015625 C-11 5 -11 5 -8.9375 2.25 C-5.58006317 -0.32165374 -4.11742854 -0.47877076 0 0 Z " fill="#E7F7F2" transform="translate(142,64)"/>
<path d="M0 0 C0.99 0 1.98 0 3 0 C3.33 3.96 3.66 7.92 4 12 C5.32 12.33 6.64 12.66 8 13 C10.58926331 10.41073669 10.37398043 8.97294721 10.625 5.375 C10.69976562 4.37210937 10.77453125 3.36921875 10.8515625 2.3359375 C10.90054688 1.56507812 10.94953125 0.79421875 11 0 C11.99 0 12.98 0 14 0 C14 5.28 14 10.56 14 16 C12.68 15.67 11.36 15.34 10 15 C7.65885633 15.27313343 5.32249342 15.59802999 3 16 C-0.13107836 12.61416198 -0.33550778 10.28890538 -0.1875 5.75 C-0.14689453 4.13351563 -0.14689453 4.13351563 -0.10546875 2.484375 C-0.07066406 1.66453125 -0.03585938 0.8446875 0 0 Z " fill="#EFF9F6" transform="translate(177,70)"/>
<path d="M0 0 C5.61 0 11.22 0 17 0 C17 0.99 17 1.98 17 3 C14.69 3 12.38 3 10 3 C10 9.27 10 15.54 10 22 C9.01 22 8.02 22 7 22 C7 15.73 7 9.46 7 3 C4.69 3 2.38 3 0 3 C0 2.01 0 1.02 0 0 Z " fill="#DAF3EC" transform="translate(147,64)"/>
<path d="M0 0 C0 0.66 0 1.32 0 2 C-1.32 2.33 -2.64 2.66 -4 3 C-4.33 4.32 -4.66 5.64 -5 7 C-3.68 7 -2.36 7 -1 7 C-1 7.66 -1 8.32 -1 9 C-2.32 9 -3.64 9 -5 9 C-5 13.62 -5 18.24 -5 23 C-5.99 23 -6.98 23 -8 23 C-8 18.38 -8 13.76 -8 9 C-8.66 9 -9.32 9 -10 9 C-10 8.34 -10 7.68 -10 7 C-9.34 7 -8.68 7 -8 7 C-8.061875 6.21625 -8.12375 5.4325 -8.1875 4.625 C-8.125625 3.75875 -8.06375 2.8925 -8 2 C-4.77208445 -0.1519437 -3.71599191 -0.20086443 0 0 Z " fill="#E6F7F3" transform="translate(175,63)"/>
<path d="M0 0 C0.99 0 1.98 0 3 0 C3 7.59 3 15.18 3 23 C2.01 23 1.02 23 0 23 C0 15.41 0 7.82 0 0 Z " fill="#E6F7F3" transform="translate(196,63)"/>
<path d="M0 0 C2.875 -0.125 2.875 -0.125 6 0 C6.66 0.66 7.32 1.32 8 2 C7.625 5.125 7.625 5.125 7 8 C4.69 8.33 2.38 8.66 0 9 C0 6.03 0 3.06 0 0 Z " fill="#009F66" transform="translate(152,218)"/>
<path d="M0 0 C0.99 0 1.98 0 3 0 C3 6.93 3 13.86 3 21 C2.01 21 1.02 21 0 21 C0 14.07 0 7.14 0 0 Z " fill="#D1F0E8" transform="translate(167,216)"/>
<path d="M0 0 C2 2 2 2 2.4375 4.875 C2 8 2 8 -0.125 10.375 C-3.39209869 12.221621 -5.30787163 12.3434538 -9 12 C-9 11.67 -9 11.34 -9 11 C-7.35 11 -5.7 11 -4 11 C-4 10.34 -4 9.68 -4 9 C-3.34 9 -2.68 9 -2 9 C-2 7.02 -2 5.04 -2 3 C-4.31 2.34 -6.62 1.68 -9 1 C-9 0.67 -9 0.34 -9 0 C-5.64961743 -0.83759564 -3.2704774 -1.24052591 0 0 Z " fill="#DFF4EF" transform="translate(161,217)"/>
<path d="M0 0 C0.99 0 1.98 0 3 0 C3 5.28 3 10.56 3 16 C2.01 16 1.02 16 0 16 C0 15.01 0 14.02 0 13 C-0.66 12.67 -1.32 12.34 -2 12 C-1.67 11.67 -1.34 11.34 -1 11 C-0.76636119 9.15108054 -0.58696365 7.29511969 -0.4375 5.4375 C-0.35371094 4.42558594 -0.26992187 3.41367188 -0.18359375 2.37109375 C-0.12300781 1.58863281 -0.06242188 0.80617188 0 0 Z " fill="#D2F2EA" transform="translate(188,70)"/>
<path d="M0 0 C2.875 -0.125 2.875 -0.125 6 0 C6.66 0.66 7.32 1.32 8 2 C7.46428571 5.53571429 7.46428571 5.53571429 6 7 C4.00041636 7.04080783 1.99954746 7.04254356 0 7 C0 4.69 0 2.38 0 0 Z " fill="#009C61" transform="translate(100,67)"/>
<path d="M0 0 C0.33 0.99 0.66 1.98 1 3 C3.31 3 5.62 3 8 3 C8 3.33 8 3.66 8 4 C5.69 4.33 3.38 4.66 1 5 C0.34 6.98 -0.32 8.96 -1 11 C-2.32 10.67 -3.64 10.34 -5 10 C-4.35699811 8.51960029 -3.71051501 7.04071218 -3.0625 5.5625 C-2.70285156 4.73878906 -2.34320313 3.91507813 -1.97265625 3.06640625 C-1 1 -1 1 0 0 Z " fill="#E2F5F0" transform="translate(131,226)"/>
<path d="M0 0 C0.66 0.33 1.32 0.66 2 1 C2.59355614 3.64860427 2.74209269 6.29197322 3 9 C1.35 9 -0.3 9 -2 9 C-1.34 6.03 -0.68 3.06 0 0 Z " fill="#05A36C" transform="translate(135,219)"/>
<path d="M0 0 C0.33 0.99 0.66 1.98 1 3 C-0.0725 3.144375 -1.145 3.28875 -2.25 3.4375 C-4.91662949 3.83749442 -7.41399729 4.27591924 -10 5 C-7.62417533 -0.26075462 -5.61350876 -0.1220328 0 0 Z " fill="#CEF0E8" transform="translate(142,64)"/>
<path d="M0 0 C0.99 0 1.98 0 3 0 C2.34 2.64 1.68 5.28 1 8 C2.65 8 4.3 8 6 8 C6.33 7.34 6.66 6.68 7 6 C7 6.99 7 7.98 7 9 C4.69 9 2.38 9 0 9 C-1.125 7.3125 -1.125 7.3125 -2 5 C-1.125 2.25 -1.125 2.25 0 0 Z " fill="#B4E8DB" transform="translate(132,220)"/>
<path d="M0 0 C1.32 0 2.64 0 4 0 C4.33 2.31 4.66 4.62 5 7 C4.34 7 3.68 7 3 7 C2.34 6.01 1.68 5.02 1 4 C0.34 4 -0.32 4 -1 4 C-0.67 2.68 -0.34 1.36 0 0 Z " fill="#EBF8F4" transform="translate(134,216)"/>
<path d="M0 0 C0.33 0.99 0.66 1.98 1 3 C3.31 3 5.62 3 8 3 C8 3.33 8 3.66 8 4 C4.7 4.33 1.4 4.66 -2 5 C-1 1 -1 1 0 0 Z " fill="#F2FBF8" transform="translate(131,226)"/>
</svg>
