<?xml version="1.0" encoding="UTF-8"?>
<svg version="1.1" xmlns="http://www.w3.org/2000/svg" width="487" height="512">
<path d="M0 0 C0.81098145 0.27215332 1.62196289 0.54430664 2.45751953 0.82470703 C13.11663926 4.4555559 23.22778568 8.75196153 33.17285156 14.03125 C34.92819017 14.96192659 36.69437899 15.87205059 38.4609375 16.78125 C57.51852713 26.74008543 74.60259004 40.05807275 90 55 C90.89332031 55.85335937 91.78664063 56.70671875 92.70703125 57.5859375 C98.6319305 63.35611588 103.91312328 69.48412434 109 76 C110.09441406 77.38638672 110.09441406 77.38638672 111.2109375 78.80078125 C116.94520541 86.23520929 121.97442655 94.00882977 126.81982422 102.04345703 C127.57155861 103.2897126 128.32791031 104.53320302 129.09033203 105.77294922 C159.04259684 154.56683618 166.65498546 218.72578135 154.05078125 274.07275391 C147.69308242 300.35712914 137.22687304 326.55864781 122 349 C121.14535156 350.28970703 121.14535156 350.28970703 120.2734375 351.60546875 C113.96643388 360.89317956 106.68177657 369.37487818 99.12109375 377.65625 C97.18168497 379.79924312 95.30670701 381.98344638 93.4375 384.1875 C90.54639387 387.50396427 87.44108062 390.38561756 84.0859375 393.2265625 C81.92714145 395.06194341 79.8421093 396.96415649 77.75 398.875 C50.61435265 422.9491897 16.86104648 438.81756169 -18 448 C-19.1446875 448.30421875 -20.289375 448.6084375 -21.46875 448.921875 C-49.13182486 455.50192679 -79.91346525 456.46445925 -108 452 C-109.33584149 451.81441181 -110.67178072 451.62952588 -112.0078125 451.4453125 C-141.69909697 447.05447258 -170.49056432 435.38183419 -196.0625 419.9375 C-197.4712439 419.08961914 -197.4712439 419.08961914 -198.90844727 418.22460938 C-204.51289464 414.76776276 -209.69383005 411.01089706 -214.77587891 406.82348633 C-216.91374643 405.07071657 -219.09645188 403.40220315 -221.3125 401.75 C-230.14941513 394.87338646 -238.18549073 387.05734623 -245.8125 378.875 C-246.33432861 378.3186084 -246.85615723 377.7622168 -247.39379883 377.18896484 C-251 373.24791525 -251 373.24791525 -251 371 C-251.66 371 -252.32 371 -253 371 C-254.36938477 369.47802734 -254.36938477 369.47802734 -255.94140625 367.3359375 C-256.52067871 366.55065674 -257.09995117 365.76537598 -257.69677734 364.95629883 C-258.31246582 364.10447021 -258.9281543 363.2526416 -259.5625 362.375 C-260.19365723 361.50705811 -260.82481445 360.63911621 -261.47509766 359.74487305 C-298.39295272 308.62095192 -313.55601177 245.94237691 -303.72192383 183.65527344 C-302.03635489 173.61466093 -299.81543735 163.78237707 -297 154 C-296.720354 153.01845947 -296.720354 153.01845947 -296.43505859 152.01708984 C-287.05300384 119.8440775 -268.76592267 89.39803845 -246 65 C-245.319375 64.21753906 -244.63875 63.43507813 -243.9375 62.62890625 C-205.02860277 17.92658867 -147.09586727 -6.92022883 -88.74658203 -11.82348633 C-58.63581536 -13.75860493 -28.55298447 -9.61297154 0 0 Z M-83.99609375 23.8828125 C-89.19991941 29.37191404 -92.29424118 34.97162647 -95 42 C-95.4125 43.03125 -95.825 44.0625 -96.25 45.125 C-97.1122068 48.43012608 -97.47066375 51.64796499 -97.75390625 55.046875 C-98 57 -98 57 -99 59 C-99.10492788 60.33570849 -99.15520972 61.67595943 -99.17578125 63.015625 C-99.7703646 86.51767516 -103.24940028 115.07210041 -117 135 C-118.485 135.495 -118.485 135.495 -120 136 C-119.96519531 135.11441406 -119.93039063 134.22882813 -119.89453125 133.31640625 C-119.4960637 115.08177222 -122.33476945 91.13140256 -135 77 C-138.51247987 73.05326858 -138.51247987 73.05326858 -143 71 C-142.98952637 71.71019287 -142.97905273 72.42038574 -142.96826172 73.15209961 C-142.92632514 76.41386279 -142.90055514 79.67556896 -142.875 82.9375 C-142.85824219 84.05447266 -142.84148437 85.17144531 -142.82421875 86.32226562 C-142.76028698 97.22263248 -145.20853018 106.11411479 -148.6875 116.375 C-149.04054199 117.42864746 -149.39358398 118.48229492 -149.75732422 119.56787109 C-151.91990595 125.97232831 -154.22018071 132.30836843 -156.625 138.625 C-159.25318484 145.57107759 -161.41777804 152.58621068 -163.375 159.75 C-163.62588379 160.6673291 -163.87676758 161.5846582 -164.13525391 162.52978516 C-168.77410026 180.02163018 -169.36653795 199.8977314 -163 217 C-162.62617188 218.03898438 -162.25234375 219.07796875 -161.8671875 220.1484375 C-158.62509704 228.50057783 -154.45585417 236.75179831 -148.78515625 243.72265625 C-147 246 -147 246 -147 248 C-164.19576507 244.8092342 -181.2850569 241.37751946 -198.28759766 237.27319336 C-203.84830211 235.93589089 -209.31335578 234.64392883 -215 234 C-211.90863175 247.39592909 -204.67255343 259.73444594 -197 271 C-196.51273438 271.73476563 -196.02546875 272.46953125 -195.5234375 273.2265625 C-194.40995399 274.86097397 -193.21416693 276.43892824 -192 278 C-191.34 278 -190.68 278 -190 278 C-189.79375 278.680625 -189.5875 279.36125 -189.375 280.0625 C-187.5187027 284.02822604 -185.39581397 287.19157876 -182 290 C-179.02561914 290.9910768 -176.22338072 290.96476521 -173.10760498 290.915802 C-172.22340323 290.9295442 -171.33920147 290.9432864 -170.42820573 290.95744503 C-167.47061115 290.99468017 -164.51538725 290.98198978 -161.55761719 290.96923828 C-159.43503012 290.98527545 -157.31246338 291.00422875 -155.18992615 291.02587891 C-149.42719088 291.07489172 -143.66524814 291.07896177 -137.90233898 291.0720048 C-133.08883193 291.06974548 -128.27548848 291.08807649 -123.46202111 291.10599315 C-112.10265457 291.14742589 -100.743691 291.15117398 -89.38427734 291.13232422 C-77.67420947 291.1136119 -65.9657165 291.16106108 -54.2559402 291.24077809 C-44.19620058 291.30675375 -34.13696403 291.33006339 -24.07701421 291.31966579 C-18.07136143 291.31397692 -12.06687647 291.32466711 -6.06142426 291.37698746 C-0.41025602 291.42447889 5.23841693 291.41859535 10.88957024 291.37223816 C12.95913729 291.36410901 15.02887742 291.37460915 17.09823036 291.40546799 C28.41926912 291.97465306 28.41926912 291.97465306 38.40930939 287.59861374 C41.01413667 284.99762077 43.03183005 282.11011585 45 279 C45.9682039 277.68551099 46.93964751 276.3733828 47.91796875 275.06640625 C48.6855456 273.90568028 49.44231444 272.73772657 50.1875 271.5625 C50.59838867 270.92763672 51.00927734 270.29277344 51.43261719 269.63867188 C52.6349603 267.76710891 53.81941973 265.88534316 55 264 C55.65097656 262.97777344 56.30195313 261.95554687 56.97265625 260.90234375 C64.75752069 248.22219902 64.75752069 248.22219902 68 234 C43.17805853 238.16703246 18.41419565 242.83873228 -6 249 C-3.13138765 243.83649778 -0.02037456 238.8810712 3.21875 233.94140625 C17.05269781 211.09718981 16.97707307 183.73198122 11.75 158.25 C8.45448205 145.61345203 2.72178601 134.21874717 -3.43457031 122.79074097 C-14.92674347 101.3613827 -21.28773343 81.6580007 -18 57 C-31.67743093 69.06832141 -37.97154704 91.85877386 -39.5625 109.4375 C-39.60503906 110.17871094 -39.64757812 110.91992188 -39.69140625 111.68359375 C-40 114 -40 114 -40.9609375 116.75 C-42.22118607 120.69183013 -42.6663502 124.45683087 -43.0625 128.5625 C-43.1860083 129.77933472 -43.1860083 129.77933472 -43.31201172 131.02075195 C-44.23856006 140.65960682 -44.63423005 150.32634744 -45 160 C-45.66 160 -46.32 160 -47 160 C-47.15819214 158.27052124 -47.15819214 158.27052124 -47.31958008 156.50610352 C-47.72064954 152.1423037 -48.13114346 147.77942914 -48.54418945 143.41674805 C-48.7201802 141.54458444 -48.893766 139.67219287 -49.06469727 137.79956055 C-50.55110234 121.54500185 -52.25944194 105.61452908 -57.6875 90.125 C-58.03272705 89.11179687 -58.3779541 88.09859375 -58.73364258 87.0546875 C-61.25226049 79.79577877 -64.12392818 72.73160405 -67.19433594 65.69140625 C-73.54032794 51.0087714 -79.87424076 33.78702204 -74 18 C-78.08713377 18 -81.16490981 21.21230241 -83.99609375 23.8828125 Z M-182 312 C-182 324.54 -182 337.08 -182 350 C-154.29733867 350.04626027 -126.59468662 350.08196993 -98.89199448 350.10362434 C-86.02970822 350.11394525 -73.16744637 350.12802114 -60.30517578 350.15087891 C-49.09690817 350.17078786 -37.88865823 350.18371051 -26.68037343 350.18817699 C-20.74344397 350.1907886 -14.80656508 350.19694392 -8.86965179 350.21146011 C-3.28506169 350.2250046 2.29945685 350.22922899 7.88406181 350.22621536 C9.93678361 350.22676693 11.98950772 350.23076296 14.04221535 350.23841095 C16.83912505 350.24832314 19.63576257 350.2459825 22.43267822 350.24050903 C23.65835915 350.24924756 23.65835915 350.24924756 24.90880132 350.25816262 C29.07407374 350.23604512 31.17773383 349.91113309 35 348 C35 336.45 35 324.9 35 313 C30.71543831 311.92885958 26.80773816 311.86414943 22.43267822 311.87974548 C21.55946387 311.87889106 20.68624952 311.87803663 19.78657413 311.87715632 C16.85541668 311.87550688 13.92431625 311.88101416 10.99316406 311.88647461 C8.89407859 311.88675662 6.79499301 311.88659847 4.69590759 311.8860321 C-1.00822769 311.88574468 -6.71234203 311.89163255 -12.41647243 311.89860606 C-18.37556795 311.90484873 -24.33466393 311.90544412 -30.29376221 311.90663147 C-41.58070242 311.90974208 -52.86763296 311.91795185 -64.15456891 311.92798096 C-77.00326719 311.93915046 -89.85196593 311.94465466 -102.70066786 311.94967639 C-129.13378411 311.96013467 -155.56689111 311.97792987 -182 312 Z M-138 370 C-139.87325171 373.74650342 -138.03137459 378.10431881 -137 382 C-132.00833215 396.75037848 -121.34483 407.80135969 -107.83837891 415.09521484 C-90.5203599 423.61853203 -68.13937656 424.98362824 -49.70703125 419.3125 C-32.24432167 413.12970715 -20.08952169 402.95671206 -11.1875 386.6875 C-9.45159275 381.29705118 -8.86110982 375.59721381 -8 370 C-50.9 370 -93.8 370 -138 370 Z " fill="#D95135" transform="translate(317,35)"/>
<path d="M0 0 C0.84074082 0.00223072 1.68148164 0.00446144 2.54769945 0.00675976 C3.87711903 0.00441978 3.87711903 0.00441978 5.23339558 0.00203252 C8.22681124 -0.00198145 11.22017689 0.00121369 14.21359301 0.00434887 C16.35002214 0.00299501 18.48645105 0.00121516 20.62287951 -0.00096118 C26.44295554 -0.00553727 32.26301394 -0.00374524 38.08309031 -0.0005821 C44.15918448 0.0019406 50.23527709 -0.00039578 56.31137133 -0.00196826 C66.51722534 -0.00379023 76.72307212 -0.00138296 86.92892504 0.00337231 C98.7469465 0.00881498 110.56495072 0.00705234 122.38297176 0.00154591 C132.5094645 -0.00298447 142.63595203 -0.00363614 152.76244545 -0.00101542 C158.81941145 0.00054777 164.87636934 0.00073997 170.93333483 -0.00255191 C176.62626059 -0.00542954 182.31916401 -0.00345695 188.01208735 0.00234234 C190.10799227 0.00367053 192.20389906 0.00327485 194.29980326 0.00107968 C197.14800479 -0.00162955 199.99613349 0.00174649 202.84433031 0.00675976 C204.10544154 0.00341368 204.10544154 0.00341368 205.39202976 0 C211.08186505 0.01959358 211.08186505 0.01959358 212.19601488 1.13374341 C212.19601488 14.00374341 212.19601488 26.87374341 212.19601488 40.13374341 C139.92601488 40.13374341 67.65601488 40.13374341 -6.80398512 40.13374341 C-6.80398512 0.02343028 -6.80398512 0.02343028 0 0 Z M-5.80398512 1.13374341 C-5.80398512 13.67374341 -5.80398512 26.21374341 -5.80398512 39.13374341 C21.89867621 39.18000367 49.60132826 39.21571333 77.3040204 39.23736775 C90.16630666 39.24768866 103.02856851 39.26176454 115.8908391 39.28462231 C127.09910671 39.30453126 138.30735665 39.31745391 149.51564145 39.32192039 C155.45257091 39.324532 161.3894498 39.33068733 167.32636309 39.34520352 C172.91095319 39.35874801 178.49547173 39.3629724 184.08007669 39.35995877 C186.13279849 39.36051034 188.18552261 39.36450637 190.23823023 39.37215436 C193.03513993 39.38206654 195.83177745 39.3797259 198.6286931 39.37425244 C199.85437404 39.38299096 199.85437404 39.38299096 201.1048162 39.39190602 C205.27008862 39.36978853 207.37374871 39.04487649 211.19601488 37.13374341 C211.19601488 25.58374341 211.19601488 14.03374341 211.19601488 2.13374341 C206.9114532 1.06260298 203.00375304 0.99789284 198.6286931 1.01348889 C197.75547875 1.01263446 196.8822644 1.01178004 195.98258901 1.01089972 C193.05143157 1.00925028 190.12033113 1.01475756 187.18917894 1.02021801 C185.09009347 1.02050003 182.99100789 1.02034188 180.89192247 1.01977551 C175.18778719 1.01948809 169.48367285 1.02537596 163.77954245 1.03234947 C157.82044693 1.03859214 151.86135096 1.03918753 145.90225267 1.04037488 C134.61531247 1.04348549 123.32838192 1.05169526 112.04144597 1.06172436 C99.19274769 1.07289386 86.34404895 1.07839807 73.49534702 1.0834198 C47.06223077 1.09387808 20.62912377 1.11167328 -5.80398512 1.13374341 Z " fill="#EFC4BA" transform="translate(140.80398511886597,345.8662565946579)"/>
<path d="M0 0 C43.89 0 87.78 0 133 0 C132.67 4.62 132.34 9.24 132 14 C131.34 14.33 130.68 14.66 130 15 C130.33 11.04 130.66 7.08 131 3 C88.43 3 45.86 3 2 3 C3.46850893 13.15293611 3.46850893 13.15293611 6 19 C5.67 19.99 5.34 20.98 5 22 C2.40446513 18.96357975 1.46225884 16.61382052 0.8125 12.6875 C0.65394531 11.78386719 0.49539062 10.88023437 0.33203125 9.94921875 C-0.03920159 6.65179763 0 3.31825253 0 0 Z " fill="#E7AEA1" transform="translate(177,403)"/>
<path d="M0 0 C0.33 0 0.66 0 1 0 C1.13277344 1.09699219 1.26554687 2.19398438 1.40234375 3.32421875 C1.58062985 4.77865801 1.7590208 6.23308442 1.9375 7.6875 C2.06801758 8.7693457 2.06801758 8.7693457 2.20117188 9.87304688 C2.66313805 13.62010584 3.19167679 17.30792911 4 21 C4.66 21 5.32 21 6 21 C5.95875 19.72125 5.9175 18.4425 5.875 17.125 C5.85842217 11.91127144 6.81688642 7.05992328 8 2 C8.33 2 8.66 2 9 2 C9.0276619 3.49988961 9.0466861 4.99993869 9.0625 6.5 C9.07410156 7.3353125 9.08570313 8.170625 9.09765625 9.03125 C9.00035363 11.98924978 8.64290225 14.86064144 8.25170898 17.79199219 C7.69680877 22.65961344 7.59407986 27.56830131 7.39453125 32.4609375 C7.35714844 33.275625 7.31976563 34.0903125 7.28125 34.9296875 C7.25095703 35.66429199 7.22066406 36.39889648 7.18945312 37.15576172 C7 39 7 39 6 41 C5.34 41 4.68 41 4 41 C2.49701686 34.02871648 1.60162023 27.02435501 0.875 19.9375 C0.78750488 19.1115332 0.70000977 18.28556641 0.60986328 17.43457031 C0.03733112 11.60787477 -0.09794633 5.8526819 0 0 Z " fill="#E5A394" transform="translate(266,154)"/>
<path d="M0 0 C0 0.33 0 0.66 0 1 C-20.46 1 -40.92 1 -62 1 C-62 0.67 -62 0.34 -62 0 C-41.22959223 -2.93722938 -20.7913296 -2.57591694 0 0 Z " fill="#EDBFB4" transform="translate(275,25)"/>
<path d="M0 0 C18.15 0 36.3 0 55 0 C55 0.33 55 0.66 55 1 C37.18 1 19.36 1 1 1 C2.32 6.28 3.64 11.56 5 17 C5.33 18.65 5.66 20.3 6 22 C2.33861171 19.43702819 1.54882142 16.90157242 0.75 12.6875 C0.02401725 8.30031115 0 4.55951322 0 0 Z " fill="#CE6954" transform="translate(177,403)"/>
<path d="M0 0 C8.13074901 1.69842313 8.13074901 1.69842313 12.0625 3.0625 C18.98694325 5.2724287 26.23541436 5.18230744 33.4375 5.1875 C34.32759766 5.19974609 35.21769531 5.21199219 36.13476562 5.22460938 C41.32570029 5.23598469 45.98884708 4.7629762 51.01196289 3.4309082 C53 3 53 3 57 3 C57 3.66 57 4.32 57 5 C52.76561175 7.04770309 49.28566687 7.2452598 44.609375 7.23046875 C43.90532532 7.23001053 43.20127563 7.22955231 42.47589111 7.2290802 C40.98993235 7.22606915 39.50397642 7.2182173 38.01806641 7.20581055 C35.77104184 7.18766987 33.52443362 7.18530043 31.27734375 7.18554688 C11.17821932 7.14014864 11.17821932 7.14014864 4.4375 3.4375 C3.59058594 2.98246094 2.74367187 2.52742188 1.87109375 2.05859375 C1.25363281 1.70925781 0.63617188 1.35992187 0 1 C0 0.67 0 0.34 0 0 Z " fill="#F5DCD6" transform="translate(211,451)"/>
<path d="M0 0 C0.66 0.33 1.32 0.66 2 1 C-0.51895239 3.68926817 -3.04050992 6.37608062 -5.5625 9.0625 C-6.26697266 9.81466797 -6.97144531 10.56683594 -7.69726562 11.34179688 C-9.78977922 13.56931134 -11.89348018 15.78573491 -14 18 C-14.64308105 18.68819824 -15.28616211 19.37639648 -15.94873047 20.08544922 C-16.55217285 20.71596191 -17.15561523 21.34647461 -17.77734375 21.99609375 C-18.30448975 22.55353271 -18.83163574 23.11097168 -19.37475586 23.68530273 C-21.22594703 25.18277374 -22.67494191 25.59634189 -25 26 C-18.36829476 16.3489818 -9.86406311 8.56801211 -1 1 C-0.67 0.67 -0.34 0.34 0 0 Z " fill="#E39280" transform="translate(94,77)"/>
<path d="M0 0 C1.28682545 3.86047634 0.27651028 5.17046915 -1 9 C-1.32795819 11.3470743 -1.55711987 13.68543845 -1.75390625 16.046875 C-2 18 -2 18 -3 20 C-3.1400503 21.53423664 -3.22556045 23.07367259 -3.28125 24.61328125 C-3.33732422 25.9909668 -3.33732422 25.9909668 -3.39453125 27.39648438 C-3.42933594 28.35876953 -3.46414062 29.32105469 -3.5 30.3125 C-3.56926879 32.20456415 -3.64207414 34.09650279 -3.71875 35.98828125 C-3.74904297 36.82915283 -3.77933594 37.67002441 -3.81054688 38.53637695 C-4.00682202 41.08871262 -4.4489746 43.50225984 -5 46 C-5.33 46 -5.66 46 -6 46 C-6.5715026 11.77334415 -6.5715026 11.77334415 -1 2 C-0.67 1.34 -0.34 0.68 0 0 Z " fill="#EAB7AB" transform="translate(222,74)"/>
<path d="M0 0 C-17.85649203 5.55580866 -17.85649203 5.55580866 -26 6 C-23.09907498 4.06604999 -22.10325263 3.69868059 -18.8125 3.375 C-17.554375 3.25125 -16.29625 3.1275 -15 3 C-15 2.34 -15 1.68 -15 1 C-13.25215171 0.63536268 -11.50159498 0.2836922 -9.75 -0.0625 C-8.28820312 -0.35833984 -8.28820312 -0.35833984 -6.796875 -0.66015625 C-4.08280423 -0.98993859 -2.57434547 -0.73518293 0 0 Z " fill="#EBB6AA" transform="translate(316,478)"/>
<path d="M0 0 C2 3 2 3 2 6 C2.66 6 3.32 6 4 6 C4.5304408 8.26860837 5.04905434 10.53998489 5.5625 12.8125 C5.85253906 14.07707031 6.14257812 15.34164063 6.44140625 16.64453125 C7 20 7 20 6 23 C4.9905304 19.91968584 3.99410379 16.8353041 3 13.75 C2.71382812 12.87730469 2.42765625 12.00460937 2.1328125 11.10546875 C1.72675781 9.83896484 1.72675781 9.83896484 1.3125 8.546875 C1.06113281 7.77182617 0.80976563 6.99677734 0.55078125 6.19824219 C0 4 0 4 0 0 Z " fill="#EDBAAF" transform="translate(17,309)"/>
<path d="M0 0 C0 0.66 0 1.32 0 2 C-4.49656104 4.24828052 -8.07872966 4.16682272 -13 4 C-13 3.34 -13 2.68 -13 2 C-11.58461283 1.66127487 -10.16762037 1.32925376 -8.75 1 C-7.56664062 0.7215625 -7.56664062 0.7215625 -6.359375 0.4375 C-4 0 -4 0 0 0 Z " fill="#E4A193" transform="translate(268,454)"/>
<path d="M0 0 C0.33 0 0.66 0 1 0 C1.12117187 0.66386719 1.24234375 1.32773437 1.3671875 2.01171875 C2.41239226 7.57662214 2.41239226 7.57662214 4.1875 12.9375 C5 15 5 15 4 18 C0.4104536 13.63011742 -0.13599111 10.33532401 -0.0625 4.75 C-0.05347656 3.85796875 -0.04445312 2.9659375 -0.03515625 2.046875 C-0.02355469 1.37140625 -0.01195312 0.6959375 0 0 Z " fill="#EAB2A6" transform="translate(178,407)"/>
<path d="M0 0 C5.11365014 1.0681847 10.07227969 2.23107476 15 4 C15 4.66 15 5.32 15 6 C10.83513802 6.30017023 8.34984273 5.45324946 4.6875 3.5 C3.80449219 3.0359375 2.92148438 2.571875 2.01171875 2.09375 C1.34785156 1.7328125 0.68398437 1.371875 0 1 C0 0.67 0 0.34 0 0 Z " fill="#EAB4A7" transform="translate(211,451)"/>
<path d="M0 0 C4.571279 0.54855348 8.67435795 1.41744803 13 3 C9.40472245 4.24451915 6.68706033 3.70603283 3 3 C2.01 3 1.02 3 0 3 C0 2.01 0 1.02 0 0 Z " fill="#E7A394" transform="translate(100,267)"/>
<path d="M0 0 C0.33 0.66 0.66 1.32 1 2 C6.445 1.505 6.445 1.505 12 1 C12 1.33 12 1.66 12 2 C11.06027344 2.19916016 11.06027344 2.19916016 10.1015625 2.40234375 C8.87566406 2.66724609 8.87566406 2.66724609 7.625 2.9375 C6.81289063 3.11152344 6.00078125 3.28554688 5.1640625 3.46484375 C2.970537 3.92330693 2.970537 3.92330693 1 5 C0.34 4.67 -0.32 4.34 -1 4 C-0.67 2.68 -0.34 1.36 0 0 Z " fill="#F0CEC7" transform="translate(312,280)"/>
<path d="M0 0 C4.92127034 -0.16682272 8.50343896 -0.24828052 13 2 C13 2.33 13 2.66 13 3 C11.58249437 2.88490339 10.16598831 2.75746342 8.75 2.625 C7.96109375 2.55539062 7.1721875 2.48578125 6.359375 2.4140625 C3.914123 1.98492887 2.15163097 1.21399362 0 0 Z " fill="#EBB5AA" transform="translate(132,275)"/>
<path d="M0 0 C0.33 1.32 0.66 2.64 1 4 C1.99 4.33 2.98 4.66 4 5 C3.67 6.32 3.34 7.64 3 9 C2.01 9 1.02 9 0 9 C0 6.03 0 3.06 0 0 Z " fill="#DA826F" transform="translate(198,161)"/>
<path d="M0 0 C1.45606519 4.52092968 0.27032841 7.51648796 -1 12 C-1.33 12 -1.66 12 -2 12 C-2.05422947 10.5629191 -2.09289723 9.12524538 -2.125 7.6875 C-2.14820313 6.88699219 -2.17140625 6.08648437 -2.1953125 5.26171875 C-2 3 -2 3 0 0 Z " fill="#E6A597" transform="translate(468,312)"/>
<path d="M0 0 C-2.39763185 2.39763185 -3.33273498 2.34280586 -6.625 2.625 C-7.44226563 2.69976562 -8.25953125 2.77453125 -9.1015625 2.8515625 C-9.72804687 2.90054688 -10.35453125 2.94953125 -11 3 C-7.74003139 -0.25996861 -4.40088745 -1.46696248 0 0 Z " fill="#EAB6AC" transform="translate(172,36)"/>
</svg>
